<?xml version="1.0" encoding="UTF-8" standalone="no"?>
<!DOCTYPE svg PUBLIC "-//W3C//DTD SVG 1.1//EN" "http://www.w3.org/Graphics/SVG/1.1/DTD/svg11.dtd">
<svg version="1.1" xmlns="http://www.w3.org/2000/svg" xmlns:xlink="http://www.w3.org/1999/xlink" preserveAspectRatio="xMidYMid meet" viewBox="0 0 640 640" width="640" height="640"><defs><path d="M320 520C209.61 520 120 430.39 120 320.01C120 209.63 209.61 120 320 120C430.38 120 520 209.63 520 320.01C520 430.39 430.38 520 320 520Z" id="b3rOfrhIzq"></path><path d="M386.17 755.51L465.3 946.53L446.19 954.44L367.07 763.42L367.07 763.42L386.17 755.51ZM528.9 832.38L509.26 838.85L463.63 700.39L475.05 848.5L474.81 848.52L457.86 860.03L387.44 756.33L404.54 744.72L451.66 814.1L442.64 697.08L462.05 695.58L458.85 685.87L478.48 679.4L515.6 792.02L538.59 660.56L558.96 664.12L529.56 832.21L528.8 832.08L528.8 832.08L528.9 832.38Z" id="ahkrJaG8b"></path><path d="M138.53 684.22L140.04 684.5L141.53 684.84L143 685.23L144.45 685.68L145.87 686.19L147.26 686.74L148.63 687.35L149.97 688.02L151.28 688.73L152.56 689.49L153.8 690.3L155.02 691.15L156.19 692.05L157.33 692.99L158.44 693.97L159.5 695L160.53 696.06L161.51 697.17L162.45 698.31L163.35 699.48L164.2 700.7L165.01 701.94L165.77 703.22L166.48 704.53L167.15 705.87L167.76 707.24L168.31 708.63L168.82 710.05L169.27 711.5L169.66 712.97L170 714.46L170.28 715.97L170.5 717.51L170.66 719.06L170.75 720.63L170.78 722.22L170.75 723.8L170.66 725.37L170.5 726.92L170.28 728.46L170 729.97L169.66 731.46L169.27 732.93L168.82 734.38L168.31 735.8L167.76 737.2L167.15 738.56L166.48 739.9L165.77 741.21L165.01 742.49L164.2 743.74L163.35 744.95L162.45 746.12L161.51 747.27L160.53 748.37L159.5 749.43L158.44 750.46L157.33 751.44L156.19 752.39L155.02 753.28L153.8 754.14L152.56 754.94L151.28 755.7L149.97 756.42L148.63 757.08L147.26 757.69L145.87 758.25L144.45 758.75L143 759.2L141.53 759.6L140.04 759.93L138.53 760.21L136.99 760.43L135.44 760.59L133.87 760.68L132.28 760.72L130.7 760.68L129.13 760.59L127.58 760.43L126.04 760.21L124.53 759.93L123.04 759.6L121.57 759.2L120.12 758.75L118.7 758.25L117.3 757.69L115.94 757.08L114.6 756.42L113.29 755.7L112.01 754.94L110.76 754.14L109.55 753.28L108.38 752.39L107.23 751.44L106.13 750.46L105.07 749.43L104.04 748.37L103.06 747.27L102.11 746.12L101.22 744.95L100.36 743.74L99.56 742.49L98.8 741.21L98.08 739.9L97.42 738.56L96.81 737.2L96.25 735.8L95.75 734.38L95.3 732.93L94.9 731.46L94.57 729.97L94.29 728.46L94.07 726.92L93.91 725.37L93.82 723.8L93.78 722.22L93.82 720.63L93.91 719.06L94.07 717.51L94.29 715.97L94.57 714.46L94.9 712.97L95.3 711.5L95.75 710.05L96.25 708.63L96.81 707.24L97.42 705.87L98.08 704.53L98.8 703.22L99.56 701.94L100.36 700.7L101.22 699.48L102.11 698.31L103.06 697.17L104.04 696.06L105.07 695L106.13 693.97L107.23 692.99L108.38 692.05L109.55 691.15L110.76 690.3L112.01 689.49L113.29 688.73L114.6 688.02L115.94 687.35L117.3 686.74L118.7 686.19L120.12 685.68L121.57 685.23L123.04 684.84L124.53 684.5L126.04 684.22L127.58 684L129.13 683.84L130.7 683.75L132.28 683.72L133.87 683.75L135.44 683.84L136.99 684L136.99 684L138.53 684.22ZM127.26 705.78L126.03 706.22L124.84 706.75L123.71 707.36L122.62 708.05L121.59 708.81L120.62 709.65L119.72 710.55L118.88 711.52L118.12 712.55L117.43 713.64L116.81 714.77L116.29 715.96L115.85 717.19L115.5 718.46L115.24 719.76L115.09 721.1L115.04 722.47L115.09 723.83L115.24 725.17L115.5 726.48L115.85 727.75L116.29 728.97L116.81 730.16L117.43 731.3L118.12 732.38L118.88 733.41L119.72 734.38L120.62 735.28L121.59 736.12L122.62 736.89L123.71 737.58L124.84 738.19L126.03 738.71L127.26 739.15L128.52 739.5L129.83 739.76L131.17 739.91L132.54 739.97L133.9 739.91L135.24 739.76L136.55 739.5L137.81 739.15L139.04 738.71L140.23 738.19L141.36 737.58L142.45 736.89L143.48 736.12L144.45 735.28L145.35 734.38L146.19 733.41L146.95 732.38L147.64 731.3L148.26 730.16L148.78 728.97L149.22 727.75L149.57 726.48L149.83 725.17L149.98 723.83L150.04 722.47L149.98 721.1L149.83 719.76L149.57 718.46L149.22 717.19L148.78 715.96L148.26 714.77L147.64 713.64L146.95 712.55L146.19 711.52L145.35 710.55L144.45 709.65L143.48 708.81L142.45 708.05L141.36 707.36L140.23 706.75L139.04 706.22L137.81 705.78L136.55 705.43L135.24 705.17L133.9 705.02L132.54 704.97L131.17 705.02L129.83 705.17L128.52 705.43L128.52 705.43L127.26 705.78Z" id="c2C7MzN7Qv"></path></defs><g><g><g><use xlink:href="#b3rOfrhIzq" opacity="0.37" fill="#000000" fill-opacity="1"></use></g><g><use xlink:href="#ahkrJaG8b" opacity="1" fill="#df04aa" fill-opacity="1"></use></g><g><use xlink:href="#c2C7MzN7Qv" opacity="1" fill="#000000" fill-opacity="1"></use></g></g></g></svg>