<?xml version="1.0" encoding="UTF-8" standalone="no"?>
<!DOCTYPE svg PUBLIC "-//W3C//DTD SVG 1.1//EN" "http://www.w3.org/Graphics/SVG/1.1/DTD/svg11.dtd">
<svg version="1.1" xmlns="http://www.w3.org/2000/svg" xmlns:xlink="http://www.w3.org/1999/xlink" preserveAspectRatio="xMidYMid meet" viewBox="0 0 640 640" width="640" height="640"><defs><path d="M355.61 1046.9C245.22 1046.9 155.61 959.05 155.61 850.84C155.61 742.63 245.22 654.77 355.61 654.77C465.99 654.77 555.61 742.63 555.61 850.84C555.61 959.05 465.99 1046.9 355.61 1046.9Z" id="f19LAAfJcG"></path><path d="M323.31 97.67L325.04 97.85L326.76 98.09L328.45 98.41L330.11 98.78L331.76 99.22L333.37 99.73L334.96 100.29L336.52 100.91L338.04 101.6L339.54 102.33L341 103.13L342.43 103.98L343.82 104.88L345.17 105.83L346.49 106.84L347.76 107.89L349 108.99L350.18 110.13L351.33 111.32L352.43 112.55L353.48 113.83L354.48 115.14L355.44 116.5L356.34 117.89L357.19 119.32L357.98 120.78L358.72 122.27L359.4 123.8L360.03 125.36L360.59 126.95L361.09 128.56L361.53 130.2L361.91 131.87L362.22 133.56L362.47 135.27L362.64 137.01L362.75 138.76L362.79 140.53L362.75 142.3L362.64 144.06L362.47 145.79L362.22 147.5L361.91 149.19L361.53 150.86L361.09 152.5L360.59 154.12L360.03 155.7L359.4 157.26L358.72 158.79L357.98 160.29L357.19 161.75L356.34 163.18L355.44 164.57L354.48 165.92L353.48 167.23L352.43 168.51L351.33 169.74L350.18 170.93L349 172.08L347.76 173.18L346.49 174.23L345.17 175.23L343.82 176.18L342.43 177.09L341.2 177.82L363.14 303.29L395.89 203.94L395.06 202.94L394.16 201.76L393.31 200.55L392.5 199.31L391.74 198.03L391.03 196.72L390.37 195.38L389.76 194.01L389.2 192.62L388.7 191.2L388.25 189.75L387.85 188.28L387.51 186.79L387.24 185.27L387.02 183.74L386.86 182.19L386.76 180.62L386.73 179.03L386.76 177.45L386.86 175.88L387.02 174.32L387.24 172.79L387.51 171.28L387.85 169.78L388.25 168.31L388.7 166.87L389.2 165.45L389.76 164.05L390.37 162.68L391.03 161.35L391.74 160.04L392.5 158.76L393.31 157.51L394.16 156.3L395.06 155.12L396 153.98L396.99 152.88L398.01 151.81L399.08 150.79L400.18 149.8L401.32 148.86L402.5 147.96L403.71 147.11L404.96 146.3L406.24 145.54L407.54 144.83L408.88 144.17L410.25 143.56L411.65 143L413.07 142.5L414.51 142.05L415.98 141.65L417.48 141.31L418.99 141.04L420.52 140.82L422.08 140.66L423.65 140.56L425.23 140.53L426.82 140.56L428.39 140.66L429.94 140.82L431.47 141.04L432.99 141.31L434.48 141.65L435.95 142.05L437.39 142.5L438.82 143L440.21 143.56L441.58 144.17L442.92 144.83L444.23 145.54L445.51 146.3L446.75 147.11L447.96 147.96L449.14 148.86L450.28 149.8L451.38 150.79L452.45 151.81L453.47 152.88L454.46 153.98L455.4 155.12L456.3 156.3L457.15 157.51L457.96 158.76L458.72 160.04L459.43 161.35L460.09 162.68L460.7 164.05L461.26 165.45L461.77 166.87L462.22 168.31L462.61 169.78L462.95 171.28L463.23 172.79L463.45 174.32L463.6 175.88L463.7 177.45L463.73 179.03L463.7 180.62L463.6 182.19L463.45 183.74L463.23 185.27L462.95 186.79L462.61 188.28L462.22 189.75L461.77 191.2L461.26 192.62L460.7 194.01L460.09 195.38L459.43 196.72L458.72 198.03L457.96 199.31L457.15 200.55L456.3 201.76L455.4 202.94L454.46 204.08L453.47 205.18L452.45 206.25L451.38 207.28L450.28 208.26L449.14 209.2L447.96 210.1L446.75 210.95L445.51 211.76L444.23 212.52L442.92 213.23L441.58 213.89L440.21 214.5L438.82 215.06L437.39 215.57L435.95 216.02L435.5 216.14L427.08 325.38L471.07 260.61L470.72 259.64L470.27 258.19L469.88 256.73L469.54 255.23L469.26 253.72L469.04 252.19L468.89 250.63L468.79 249.06L468.76 247.48L468.79 245.89L468.89 244.32L469.04 242.77L469.26 241.24L469.54 239.72L469.88 238.23L470.27 236.76L470.72 235.31L471.23 233.89L471.79 232.5L472.4 231.13L473.06 229.79L473.77 228.48L474.53 227.2L475.34 225.96L476.19 224.75L477.09 223.57L478.03 222.43L479.01 221.32L480.04 220.26L481.11 219.23L482.21 218.25L483.35 217.31L484.53 216.41L485.74 215.56L486.98 214.75L488.26 213.99L489.57 213.28L490.91 212.62L492.28 212.01L493.67 211.45L495.09 210.94L496.54 210.49L498.01 210.1L499.5 209.76L501.02 209.48L502.55 209.26L504.1 209.11L505.67 209.01L507.26 208.98L508.84 209.01L510.41 209.11L511.97 209.26L513.5 209.48L515.01 209.76L516.51 210.1L517.98 210.49L519.42 210.94L520.84 211.45L522.24 212.01L523.61 212.62L524.94 213.28L526.25 213.99L527.53 214.75L528.78 215.56L529.99 216.41L531.17 217.31L532.31 218.25L533.41 219.23L534.48 220.26L535.5 221.32L536.49 222.43L537.43 223.57L538.33 224.75L539.18 225.96L539.99 227.2L540.75 228.48L541.46 229.79L542.12 231.13L542.73 232.5L543.29 233.89L543.79 235.31L544.24 236.76L544.64 238.23L544.98 239.72L545.25 241.24L545.47 242.77L545.63 244.32L545.73 245.89L545.76 247.48L545.73 249.06L545.63 250.63L545.47 252.19L545.25 253.72L544.98 255.23L544.64 256.73L544.24 258.19L543.79 259.64L543.29 261.06L542.73 262.46L542.12 263.83L541.46 265.16L540.75 266.47L539.99 267.75L539.18 269L538.33 270.21L537.43 271.39L536.49 272.53L535.5 273.63L534.48 274.7L533.41 275.72L532.31 276.71L531.17 277.65L529.99 278.55L528.78 279.4L527.53 280.21L526.25 280.97L524.94 281.68L523.61 282.34L522.24 282.95L520.84 283.51L519.42 284.01L517.98 284.46L516.51 284.86L515.01 285.19L513.5 285.47L511.97 285.69L510.41 285.85L508.84 285.95L507.26 285.98L507 285.97L436.79 455.46L438.35 455.46L439.17 455.48L439.99 455.53L440.79 455.61L441.59 455.73L442.37 455.87L443.14 456.04L443.9 456.25L444.65 456.48L445.39 456.74L446.11 457.03L446.82 457.35L447.51 457.69L448.19 458.06L448.85 458.45L449.5 458.87L450.12 459.31L450.73 459.77L451.32 460.26L451.9 460.77L452.45 461.3L452.98 461.85L453.49 462.42L453.97 463.02L454.44 463.62L454.88 464.25L455.3 464.9L455.69 465.56L456.06 466.24L456.4 466.93L456.72 467.64L457.01 468.36L457.27 469.1L457.5 469.84L457.71 470.61L457.88 471.38L458.02 472.16L458.14 472.96L458.22 473.76L458.27 474.57L458.29 475.4L458.29 522.53L458.27 523.35L458.22 524.17L458.14 524.97L458.02 525.77L457.88 526.55L457.71 527.32L457.5 528.08L457.27 528.83L457.01 529.57L456.72 530.29L456.4 531L456.06 531.69L455.69 532.37L455.3 533.03L454.88 533.68L454.44 534.3L453.97 534.91L453.49 535.5L452.98 536.08L452.45 536.63L451.9 537.16L451.32 537.67L450.73 538.15L450.12 538.62L449.5 539.06L448.85 539.48L448.19 539.87L447.51 540.24L446.82 540.58L446.11 540.9L445.39 541.19L444.65 541.45L443.9 541.68L443.14 541.88L442.37 542.06L441.59 542.2L440.79 542.32L439.99 542.4L439.17 542.45L438.35 542.46L201.22 542.46L200.4 542.45L199.58 542.4L198.78 542.32L197.98 542.2L197.2 542.06L196.43 541.88L195.67 541.68L194.92 541.45L194.18 541.19L193.46 540.9L192.75 540.58L192.06 540.24L191.38 539.87L190.72 539.48L190.07 539.06L189.45 538.62L188.84 538.15L188.25 537.67L187.67 537.16L187.12 536.63L186.59 536.08L186.08 535.5L185.6 534.91L185.13 534.3L184.69 533.68L184.27 533.03L183.88 532.37L183.51 531.69L183.17 531L182.85 530.29L182.56 529.57L182.3 528.83L182.07 528.08L181.86 527.32L181.69 526.55L181.55 525.77L181.43 524.97L181.35 524.17L181.3 523.35L181.29 522.53L181.29 475.4L181.3 474.57L181.35 473.76L181.43 472.96L181.55 472.16L181.69 471.38L181.86 470.61L182.07 469.84L182.3 469.1L182.56 468.36L182.85 467.64L183.17 466.93L183.51 466.24L183.88 465.56L184.27 464.9L184.69 464.25L185.13 463.62L185.6 463.02L186.08 462.42L186.59 461.85L187.12 461.3L187.67 460.77L188.25 460.26L188.84 459.77L189.45 459.31L190.07 458.87L190.72 458.45L191.38 458.06L192.06 457.69L192.75 457.35L193.46 457.03L194.18 456.74L194.92 456.48L195.67 456.25L196.43 456.04L197.2 455.87L197.98 455.73L198.78 455.61L199.58 455.53L200.4 455.48L201.22 455.46L202.78 455.46L132.57 285.97L131.42 285.95L129.85 285.85L128.29 285.69L126.76 285.47L125.25 285.19L123.75 284.86L122.28 284.46L120.84 284.01L119.42 283.51L118.02 282.95L116.65 282.34L115.31 281.68L114.01 280.97L112.73 280.21L111.48 279.4L110.27 278.55L109.09 277.65L107.95 276.71L106.85 275.72L105.78 274.7L104.76 273.63L103.77 272.53L102.83 271.39L101.93 270.21L101.08 269L100.27 267.75L99.51 266.47L98.8 265.16L98.14 263.83L97.53 262.46L96.97 261.06L96.47 259.64L96.02 258.19L95.62 256.73L95.28 255.23L95.01 253.72L94.79 252.19L94.63 250.63L94.53 249.06L94.5 247.48L94.53 245.89L94.63 244.32L94.79 242.77L95.01 241.24L95.28 239.72L95.62 238.23L96.02 236.76L96.47 235.31L96.97 233.89L97.53 232.5L98.14 231.13L98.8 229.79L99.51 228.48L100.27 227.2L101.08 225.96L101.93 224.75L102.83 223.57L103.77 222.43L104.76 221.32L105.78 220.26L106.85 219.23L107.95 218.25L109.09 217.31L110.27 216.41L111.48 215.56L112.73 214.75L114.01 213.99L115.31 213.28L116.65 212.62L118.02 212.01L119.42 211.45L120.84 210.94L122.28 210.49L123.75 210.1L125.25 209.76L126.76 209.48L128.29 209.26L129.85 209.11L131.42 209.01L133 208.98L134.59 209.01L136.16 209.11L137.71 209.26L139.24 209.48L140.76 209.76L142.25 210.1L143.72 210.49L145.16 210.94L146.59 211.45L147.98 212.01L149.35 212.62L150.69 213.28L152 213.99L153.28 214.75L154.52 215.56L155.73 216.41L156.91 217.31L158.05 218.25L159.15 219.23L160.22 220.26L161.24 221.32L162.23 222.43L163.17 223.57L164.07 224.75L164.92 225.96L165.73 227.2L166.49 228.48L167.2 229.79L167.86 231.13L168.47 232.5L169.03 233.89L169.54 235.31L169.99 236.76L170.38 238.23L170.72 239.72L171 241.24L171.22 242.77L171.37 244.32L171.47 245.89L171.5 247.48L171.47 249.06L171.37 250.63L171.22 252.19L171 253.72L170.72 255.23L170.38 256.73L169.99 258.19L169.54 259.64L169.03 261.06L168.95 261.26L212.49 325.38L204.05 215.94L202.87 215.57L201.44 215.06L200.05 214.5L198.68 213.89L197.34 213.23L196.03 212.52L194.75 211.76L193.51 210.95L192.3 210.1L191.12 209.2L189.98 208.26L188.88 207.28L187.81 206.25L186.79 205.18L185.8 204.08L184.86 202.94L183.96 201.76L183.11 200.55L182.3 199.31L181.54 198.03L180.83 196.72L180.17 195.38L179.56 194.01L179 192.62L178.49 191.2L178.04 189.75L177.65 188.28L177.31 186.79L177.03 185.27L176.81 183.74L176.66 182.19L176.56 180.62L176.53 179.03L176.56 177.45L176.66 175.88L176.81 174.32L177.03 172.79L177.31 171.28L177.65 169.78L178.04 168.31L178.49 166.87L179 165.45L179.56 164.05L180.17 162.68L180.83 161.35L181.54 160.04L182.3 158.76L183.11 157.51L183.96 156.3L184.86 155.12L185.8 153.98L186.79 152.88L187.81 151.81L188.88 150.79L189.98 149.8L191.12 148.86L192.3 147.96L193.51 147.11L194.75 146.3L196.03 145.54L197.34 144.83L198.68 144.17L200.05 143.56L201.44 143L202.87 142.5L204.31 142.05L205.78 141.65L207.27 141.31L208.79 141.04L210.32 140.82L211.87 140.66L213.44 140.56L215.03 140.53L216.61 140.56L218.18 140.66L219.74 140.82L221.27 141.04L222.78 141.31L224.28 141.65L225.75 142.05L227.19 142.5L228.61 143L230.01 143.56L231.38 144.17L232.72 144.83L234.02 145.54L235.3 146.3L236.55 147.11L237.76 147.96L238.94 148.86L240.08 149.8L241.18 150.79L242.25 151.81L243.27 152.88L244.26 153.98L245.2 155.12L246.1 156.3L246.95 157.51L247.76 158.76L248.52 160.04L249.23 161.35L249.89 162.68L250.5 164.05L251.06 165.45L251.56 166.87L252.01 168.31L252.41 169.78L252.75 171.28L253.02 172.79L253.24 174.32L253.4 175.88L253.5 177.45L253.53 179.03L253.5 180.62L253.4 182.19L253.24 183.74L253.02 185.27L252.75 186.79L252.41 188.28L252.01 189.75L251.56 191.2L251.06 192.62L250.5 194.01L249.89 195.38L249.23 196.72L248.52 198.03L247.76 199.31L246.95 200.55L246.1 201.76L245.2 202.94L244.26 204.08L243.87 204.51L276.43 303.29L298.37 177.82L297.14 177.09L295.75 176.18L294.4 175.23L293.08 174.23L291.81 173.18L290.58 172.08L289.39 170.93L288.24 169.74L287.14 168.51L286.09 167.23L285.09 165.92L284.13 164.57L283.23 163.18L282.38 161.75L281.59 160.29L280.85 158.79L280.17 157.26L279.54 155.7L278.98 154.12L278.48 152.5L278.04 150.86L277.66 149.19L277.35 147.5L277.1 145.79L276.93 144.06L276.82 142.3L276.79 140.53L276.82 138.76L276.93 137.01L277.1 135.27L277.35 133.56L277.66 131.87L278.04 130.2L278.48 128.56L278.98 126.95L279.54 125.36L280.17 123.8L280.85 122.27L281.59 120.78L282.38 119.32L283.23 117.89L284.13 116.5L285.09 115.14L286.09 113.83L287.14 112.55L288.24 111.32L289.39 110.13L290.58 108.99L291.81 107.89L293.08 106.84L294.4 105.83L295.75 104.88L297.14 103.98L298.57 103.13L300.03 102.33L301.53 101.6L303.05 100.91L304.61 100.29L306.2 99.73L307.82 99.22L309.46 98.78L311.12 98.41L312.81 98.09L314.53 97.85L316.26 97.67L318.01 97.57L319.79 97.53L321.56 97.57L323.31 97.67ZM226.91 478.98L226.18 479.03L225.46 479.1L224.75 479.2L224.04 479.33L223.35 479.48L222.67 479.67L222 479.88L221.34 480.11L220.69 480.37L220.06 480.65L219.44 480.96L218.83 481.29L218.24 481.64L217.66 482.02L217.1 482.41L216.55 482.83L216.02 483.26L215.51 483.72L215.02 484.2L214.54 484.69L214.08 485.2L213.65 485.73L213.23 486.28L212.83 486.84L212.46 487.42L212.11 488.01L211.78 488.62L211.47 489.24L211.19 489.87L210.93 490.52L210.69 491.18L210.49 491.85L210.3 492.53L210.15 493.23L210.02 493.93L209.92 494.64L209.84 495.36L209.8 496.09L209.78 496.82L209.78 501.11L209.8 501.84L209.84 502.57L209.92 503.29L210.02 504L210.15 504.71L210.3 505.4L210.49 506.08L210.69 506.75L210.93 507.41L211.19 508.06L211.47 508.69L211.78 509.31L212.11 509.92L212.46 510.51L212.83 511.09L213.23 511.65L213.65 512.2L214.08 512.73L214.54 513.24L215.02 513.74L215.51 514.21L216.02 514.67L216.55 515.1L217.1 515.52L217.66 515.92L218.24 516.29L218.83 516.64L219.44 516.97L220.06 517.28L220.69 517.56L221.34 517.82L222 518.06L222.67 518.26L223.35 518.45L224.04 518.6L224.75 518.73L225.46 518.83L226.18 518.91L226.91 518.95L227.64 518.97L411.93 518.97L412.66 518.95L413.39 518.91L414.11 518.83L414.82 518.73L415.53 518.6L416.22 518.45L416.9 518.26L417.57 518.06L418.23 517.82L418.88 517.56L419.51 517.28L420.13 516.97L420.74 516.64L421.33 516.29L421.91 515.92L422.47 515.52L423.02 515.1L423.55 514.67L424.06 514.21L424.55 513.74L425.03 513.24L425.49 512.73L425.92 512.2L426.34 511.65L426.73 511.09L427.11 510.51L427.46 509.92L427.79 509.31L428.1 508.69L428.38 508.06L428.64 507.41L428.87 506.75L429.08 506.08L429.27 505.4L429.42 504.71L429.55 504L429.65 503.29L429.73 502.57L429.77 501.84L429.78 501.11L429.78 496.82L429.77 496.09L429.73 495.36L429.65 494.64L429.55 493.93L429.42 493.23L429.27 492.53L429.08 491.85L428.87 491.18L428.64 490.52L428.38 489.87L428.1 489.24L427.79 488.62L427.46 488.01L427.11 487.42L426.73 486.84L426.34 486.28L425.92 485.73L425.49 485.2L425.03 484.69L424.55 484.2L424.06 483.72L423.55 483.26L423.02 482.83L422.47 482.41L421.91 482.02L421.33 481.64L420.74 481.29L420.13 480.96L419.51 480.65L418.88 480.37L418.23 480.11L417.57 479.88L416.9 479.67L416.22 479.48L415.53 479.33L414.82 479.2L414.11 479.1L413.39 479.03L412.66 478.98L411.93 478.97L227.64 478.97L226.91 478.98ZM318.37 183.5L292.53 331.22L291.36 331.38L284.38 332.59L277.5 334.05L270.73 335.76L265.83 337.2L225.88 215.98L225.75 216.02L224.82 216.27L235.1 349.65L232.57 350.94L226.68 354.24L220.94 357.75L215.35 361.45L213.1 363.07L155.71 278.56L154.52 279.4L153.28 280.21L152.7 280.55L225.16 455.46L414.41 455.46L487 280.22L486.98 280.21L485.74 279.4L484.53 278.55L484.1 278.22L426.7 362.74L424.91 361.45L419.32 357.75L413.58 354.24L407.69 350.94L404.5 349.31L414.77 216.09L414.51 216.02L413.75 215.78L373.8 337.01L369.53 335.76L362.76 334.05L355.88 332.59L348.9 331.38L347.02 331.12L321.2 183.5L319.79 183.53L318.37 183.5ZM130.55 230.44L129.24 230.69L127.97 231.04L126.74 231.48L125.56 232.01L124.42 232.62L123.34 233.31L122.31 234.07L121.34 234.91L120.44 235.82L119.6 236.79L118.83 237.81L118.14 238.9L117.53 240.03L117.01 241.22L116.56 242.45L116.22 243.72L115.96 245.02L115.81 246.36L115.75 247.73L115.81 249.09L115.96 250.43L116.22 251.74L116.56 253.01L117.01 254.24L117.53 255.42L118.14 256.56L118.83 257.64L119.6 258.67L120.44 259.64L121.34 260.54L122.31 261.38L123.34 262.15L124.42 262.84L125.56 263.45L126.74 263.98L127.97 264.42L129.24 264.77L130.55 265.02L131.89 265.18L133.25 265.23L134.62 265.18L135.96 265.02L137.26 264.77L138.53 264.42L139.76 263.98L140.95 263.45L142.08 262.84L143.17 262.15L144.2 261.38L145.16 260.54L146.07 259.64L146.91 258.67L147.67 257.64L148.36 256.56L148.97 255.42L149.5 254.24L149.94 253.01L150.29 251.74L150.54 250.43L150.7 249.09L150.75 247.73L150.7 246.36L150.54 245.02L150.29 243.72L149.94 242.45L149.5 241.22L148.97 240.03L148.36 238.9L147.67 237.81L146.91 236.79L146.07 235.82L145.16 234.91L144.2 234.07L143.17 233.31L142.08 232.62L140.95 232.01L139.76 231.48L138.53 231.04L137.26 230.69L135.96 230.44L134.62 230.28L133.25 230.23L131.89 230.28L130.55 230.44ZM504.3 230.44L503 230.69L501.73 231.04L500.5 231.48L499.31 232.01L498.18 232.62L497.09 233.31L496.06 234.07L495.1 234.91L494.19 235.82L493.35 236.79L492.59 237.81L491.9 238.9L491.29 240.03L490.76 241.22L490.32 242.45L489.97 243.72L489.72 245.02L489.56 246.36L489.51 247.73L489.56 249.09L489.72 250.43L489.97 251.74L490.32 253.01L490.76 254.24L491.29 255.42L491.9 256.56L492.59 257.64L493.35 258.67L494.19 259.64L495.1 260.54L496.06 261.38L497.09 262.15L498.18 262.84L499.31 263.45L500.5 263.98L501.73 264.42L503 264.77L504.3 265.02L505.64 265.18L507.01 265.23L508.37 265.18L509.71 265.02L511.02 264.77L512.29 264.42L513.52 263.98L514.7 263.45L515.84 262.84L516.92 262.15L517.95 261.38L518.92 260.54L519.82 259.64L520.66 258.67L521.43 257.64L522.12 256.56L522.73 255.42L523.25 254.24L523.7 253.01L524.04 251.74L524.3 250.43L524.45 249.09L524.51 247.73L524.45 246.36L524.3 245.02L524.04 243.72L523.7 242.45L523.25 241.22L522.73 240.03L522.12 238.9L521.43 237.81L520.66 236.79L519.82 235.82L518.92 234.91L517.95 234.07L516.92 233.31L515.84 232.62L514.7 232.01L513.52 231.48L512.29 231.04L511.02 230.69L509.71 230.44L508.37 230.28L507.01 230.23L505.64 230.28L504.3 230.44ZM422.27 161.99L420.97 162.24L419.7 162.59L418.47 163.03L417.29 163.56L416.15 164.17L415.07 164.86L414.04 165.63L413.07 166.47L412.16 167.37L411.33 168.34L410.56 169.37L409.87 170.45L409.26 171.59L408.73 172.77L408.29 174L407.94 175.27L407.69 176.58L407.53 177.91L407.48 179.28L407.53 180.65L407.69 181.99L407.94 183.29L408.29 184.56L408.73 185.79L409.26 186.97L409.87 188.11L410.56 189.2L411.33 190.22L412.16 191.19L413.07 192.1L414.04 192.94L415.07 193.7L416.15 194.39L417.29 195L418.47 195.53L419.7 195.97L420.97 196.32L422.27 196.57L423.61 196.73L424.98 196.78L426.35 196.73L427.68 196.57L428.99 196.32L430.26 195.97L431.49 195.53L432.67 195L433.81 194.39L434.89 193.7L435.92 192.94L436.89 192.1L437.8 191.19L438.63 190.22L439.4 189.2L440.09 188.11L440.7 186.97L441.23 185.79L441.67 184.56L442.02 183.29L442.27 181.99L442.43 180.65L442.48 179.28L442.43 177.91L442.27 176.58L442.02 175.27L441.67 174L441.23 172.77L440.7 171.59L440.09 170.45L439.4 169.37L438.63 168.34L437.8 167.37L436.89 166.47L435.92 165.63L434.89 164.86L433.81 164.17L432.67 163.56L431.49 163.03L430.26 162.59L428.99 162.24L427.68 161.99L426.35 161.83L424.98 161.78L423.61 161.83L422.27 161.99ZM212.57 161.99L211.27 162.24L210 162.59L208.77 163.03L207.59 163.56L206.45 164.17L205.37 164.86L204.34 165.63L203.37 166.47L202.46 167.37L201.63 168.34L200.86 169.37L200.17 170.45L199.56 171.59L199.03 172.77L198.59 174L198.24 175.27L197.99 176.58L197.83 177.91L197.78 179.28L197.83 180.65L197.99 181.99L198.24 183.29L198.59 184.56L199.03 185.79L199.56 186.97L200.17 188.11L200.86 189.2L201.63 190.22L202.46 191.19L203.37 192.1L204.34 192.94L205.37 193.7L206.45 194.39L207.59 195L208.77 195.53L210 195.97L211.27 196.32L212.57 196.57L213.91 196.73L215.28 196.78L216.65 196.73L217.98 196.57L219.29 196.32L220.56 195.97L221.79 195.53L222.97 195L224.11 194.39L225.19 193.7L226.22 192.94L227.19 192.1L228.1 191.19L228.93 190.22L229.7 189.2L230.39 188.11L231 186.97L231.53 185.79L231.97 184.56L232.32 183.29L232.57 181.99L232.73 180.65L232.78 179.28L232.73 177.91L232.57 176.58L232.32 175.27L231.97 174L231.53 172.77L231 171.59L230.39 170.45L229.7 169.37L228.93 168.34L228.1 167.37L227.19 166.47L226.22 165.63L225.19 164.86L224.11 164.17L222.97 163.56L221.79 163.03L220.56 162.59L219.29 162.24L217.98 161.99L216.65 161.83L215.28 161.78L213.91 161.83L212.57 161.99ZM317.42 121.44L316.13 121.66L314.87 121.96L313.65 122.35L312.46 122.8L311.31 123.33L310.2 123.94L309.14 124.61L308.13 125.34L307.16 126.14L306.25 126.99L305.39 127.91L304.6 128.87L303.86 129.89L303.19 130.95L302.59 132.06L302.06 133.21L301.6 134.39L301.22 135.62L300.92 136.87L300.7 138.16L300.57 139.47L300.52 140.81L300.57 142.15L300.7 143.46L300.92 144.75L301.22 146L301.6 147.23L302.06 148.42L302.59 149.57L303.19 150.67L303.86 151.74L304.6 152.75L305.39 153.72L306.25 154.63L307.16 155.48L308.13 156.28L309.14 157.02L310.2 157.69L311.31 158.29L312.46 158.82L313.65 159.28L314.87 159.66L316.13 159.96L317.42 160.18L318.73 160.31L320.07 160.36L321.4 160.31L322.72 160.18L324 159.96L325.26 159.66L326.48 159.28L327.67 158.82L328.82 158.29L329.93 157.69L330.99 157.02L332.01 156.28L332.97 155.48L333.88 154.63L334.74 153.72L335.54 152.75L336.27 151.74L336.94 150.67L337.54 149.57L338.07 148.42L338.53 147.23L338.91 146L339.21 144.75L339.43 143.46L339.57 142.15L339.61 140.81L339.57 139.47L339.43 138.16L339.21 136.87L338.91 135.62L338.53 134.39L338.07 133.21L337.54 132.06L336.94 130.95L336.27 129.89L335.54 128.87L334.74 127.91L333.88 126.99L332.97 126.14L332.01 125.34L330.99 124.61L329.93 123.94L328.82 123.33L327.67 122.8L326.48 122.35L325.26 121.96L324 121.66L322.72 121.44L321.4 121.31L320.07 121.27L318.73 121.31L317.42 121.44Z" id="bbHP2AqEk"></path><path d="M386.17 755.51L465.3 946.53L446.19 954.44L367.07 763.42L367.07 763.42L386.17 755.51ZM528.9 832.38L509.26 838.85L463.63 700.39L475.05 848.5L474.81 848.52L457.86 860.03L387.44 756.33L404.54 744.72L451.66 814.1L442.64 697.08L462.05 695.58L458.85 685.87L478.48 679.4L515.6 792.02L538.59 660.56L558.96 664.12L529.56 832.21L528.8 832.08L528.8 832.08L528.9 832.38Z" id="e60jpCtRx"></path><path d="M138.53 684.22L140.04 684.5L141.53 684.84L143 685.23L144.45 685.68L145.87 686.19L147.26 686.74L148.63 687.35L149.97 688.02L151.28 688.73L152.56 689.49L153.8 690.3L155.02 691.15L156.19 692.05L157.33 692.99L158.44 693.97L159.5 695L160.53 696.06L161.51 697.17L162.45 698.31L163.35 699.48L164.2 700.7L165.01 701.94L165.77 703.22L166.48 704.53L167.15 705.87L167.76 707.24L168.31 708.63L168.82 710.05L169.27 711.5L169.66 712.97L170 714.46L170.28 715.97L170.5 717.51L170.66 719.06L170.75 720.63L170.78 722.22L170.75 723.8L170.66 725.37L170.5 726.92L170.28 728.46L170 729.97L169.66 731.46L169.27 732.93L168.82 734.38L168.31 735.8L167.76 737.2L167.15 738.56L166.48 739.9L165.77 741.21L165.01 742.49L164.2 743.74L163.35 744.95L162.45 746.12L161.51 747.27L160.53 748.37L159.5 749.43L158.44 750.46L157.33 751.44L156.19 752.39L155.02 753.28L153.8 754.14L152.56 754.94L151.28 755.7L149.97 756.42L148.63 757.08L147.26 757.69L145.87 758.25L144.45 758.75L143 759.2L141.53 759.6L140.04 759.93L138.53 760.21L136.99 760.43L135.44 760.59L133.87 760.68L132.28 760.72L130.7 760.68L129.13 760.59L127.58 760.43L126.04 760.21L124.53 759.93L123.04 759.6L121.57 759.2L120.12 758.75L118.7 758.25L117.3 757.69L115.94 757.08L114.6 756.42L113.29 755.7L112.01 754.94L110.76 754.14L109.55 753.28L108.38 752.39L107.23 751.44L106.13 750.46L105.07 749.43L104.04 748.37L103.06 747.27L102.11 746.12L101.22 744.95L100.36 743.74L99.56 742.49L98.8 741.21L98.08 739.9L97.42 738.56L96.81 737.2L96.25 735.8L95.75 734.38L95.3 732.93L94.9 731.46L94.57 729.97L94.29 728.46L94.07 726.92L93.91 725.37L93.82 723.8L93.78 722.22L93.82 720.63L93.91 719.06L94.07 717.51L94.29 715.97L94.57 714.46L94.9 712.97L95.3 711.5L95.75 710.05L96.25 708.63L96.81 707.24L97.42 705.87L98.08 704.53L98.8 703.22L99.56 701.94L100.36 700.7L101.22 699.48L102.11 698.31L103.06 697.17L104.04 696.06L105.07 695L106.13 693.97L107.23 692.99L108.38 692.05L109.55 691.15L110.76 690.3L112.01 689.49L113.29 688.73L114.6 688.02L115.94 687.35L117.3 686.74L118.7 686.19L120.12 685.68L121.57 685.23L123.04 684.84L124.53 684.5L126.04 684.22L127.58 684L129.13 683.84L130.7 683.75L132.28 683.72L133.87 683.75L135.44 683.84L136.99 684L136.99 684L138.53 684.22ZM127.26 705.78L126.03 706.22L124.84 706.75L123.71 707.36L122.62 708.05L121.59 708.81L120.62 709.65L119.72 710.55L118.88 711.52L118.12 712.55L117.43 713.64L116.81 714.77L116.29 715.96L115.85 717.19L115.5 718.46L115.24 719.76L115.09 721.1L115.04 722.47L115.09 723.83L115.24 725.17L115.5 726.48L115.85 727.75L116.29 728.97L116.81 730.16L117.43 731.3L118.12 732.38L118.88 733.41L119.72 734.38L120.62 735.28L121.59 736.12L122.62 736.89L123.71 737.58L124.84 738.19L126.03 738.71L127.26 739.15L128.52 739.5L129.83 739.76L131.17 739.91L132.54 739.97L133.9 739.91L135.24 739.76L136.55 739.5L137.81 739.15L139.04 738.71L140.23 738.19L141.36 737.58L142.45 736.89L143.48 736.12L144.45 735.28L145.35 734.38L146.19 733.41L146.95 732.38L147.64 731.3L148.26 730.16L148.78 728.97L149.22 727.75L149.57 726.48L149.83 725.17L149.98 723.83L150.04 722.47L149.98 721.1L149.83 719.76L149.57 718.46L149.22 717.19L148.78 715.96L148.26 714.77L147.64 713.64L146.95 712.55L146.19 711.52L145.35 710.55L144.45 709.65L143.48 708.81L142.45 708.05L141.36 707.36L140.23 706.75L139.04 706.22L137.81 705.78L136.55 705.43L135.24 705.17L133.9 705.02L132.54 704.97L131.17 705.02L129.83 705.17L128.52 705.43L128.52 705.43L127.26 705.78Z" id="d3mC2QxkD7"></path><path d="M367.15 374.76L320.33 446.44L273.11 374.76L320.33 320L367.15 374.76Z" id="d6wxImFYg"></path></defs><g><g><g><use xlink:href="#f19LAAfJcG" opacity="0.37" fill="#000000" fill-opacity="1"></use></g><g><use xlink:href="#bbHP2AqEk" opacity="1" fill="#000000" fill-opacity="1"></use></g><g><use xlink:href="#e60jpCtRx" opacity="1" fill="#df04aa" fill-opacity="1"></use></g><g><use xlink:href="#d3mC2QxkD7" opacity="1" fill="#000000" fill-opacity="1"></use></g><g><use xlink:href="#d6wxImFYg" opacity="1" fill="#0057ff" fill-opacity="1"></use></g></g></g></svg>